Coordinates
version=1
nRows=60
nColumns=12
inDegrees=yes

Units are S.I. units (second, meters, Newtons, ...)
Angles are in degrees

endheader
time	SC_y	SC_z	SC_x	AC_y	AC_z	AC_x	GH_y	GH_z	GH_yy	EL_x	PS_y
       0.0              -12.64          21.45          22.99          30.53         -5.682          2.728          162.5          33.68         -140.8          46.64          94.56
  0.007534              -12.64          21.45           23.0          30.54         -5.681          2.726          162.5          33.68         -140.7          46.65          94.55
   0.01507              -12.64          21.45           23.0          30.54         -5.679          2.725          162.5          33.68         -140.7          46.67          94.54
    0.0226              -12.64          21.44          23.01          30.55         -5.678          2.723          162.5          33.69         -140.7          46.68          94.53
   0.03014              -12.64          21.44          23.02          30.55         -5.676          2.721          162.4          33.69         -140.6          46.69          94.52
   0.03767              -12.64          21.44          23.03          30.56         -5.675          2.719          162.4          33.69         -140.6          46.71          94.51
    0.0452              -12.64          21.43          23.04          30.56         -5.673          2.717          162.4           33.7         -140.5          46.72           94.5
   0.05274              -12.64          21.43          23.05          30.57         -5.671          2.715          162.3           33.7         -140.5          46.74          94.49
   0.06027              -12.64          21.43          23.06          30.58         -5.669          2.712          162.3          33.71         -140.4          46.75          94.48
   0.06781              -12.64          21.42          23.07          30.58         -5.666           2.71          162.2          33.71         -140.4          46.77          94.46
   0.07534              -12.64          21.42          23.08          30.59         -5.664          2.707          162.2          33.72         -140.3          46.79          94.45
   0.08287              -12.64          21.41          23.09           30.6         -5.661          2.704          162.2          33.72         -140.3          46.82          94.43
   0.09041              -12.64          21.41           23.1          30.61         -5.659          2.701          162.1          33.73         -140.2          46.84          94.42
   0.09794              -12.64           21.4          23.12          30.62         -5.656          2.697          162.0          33.73         -140.1          46.86           94.4
    0.1055              -12.65           21.4          23.13          30.63         -5.652          2.694          162.0          33.74         -140.0          46.89          94.38
     0.113              -12.65          21.39          23.15          30.64         -5.649           2.69          161.9          33.75         -139.9          46.92          94.36
    0.1205              -12.65          21.38          23.17          30.65         -5.645          2.685          161.9          33.75         -139.9          46.95          94.33
    0.1281              -12.65          21.37          23.19          30.67         -5.641           2.68          161.8          33.76         -139.7          46.99          94.31
    0.1356              -12.65          21.36          23.21          30.68         -5.636          2.675          161.7          33.77         -139.6          47.03          94.28
    0.1431              -12.65          21.36          23.23           30.7         -5.631          2.669          161.6          33.78         -139.5          47.07          94.25
    0.1507              -12.65          21.34          23.26          30.72         -5.626          2.663          161.5          33.79         -139.4          47.11          94.21
    0.1582              -12.65          21.33          23.29          30.74          -5.62          2.656          161.4          33.81         -139.2          47.17          94.18
    0.1657              -12.65          21.32          23.32          30.76         -5.613          2.648          161.3          33.82         -139.1          47.22          94.13
    0.1733              -12.65          21.31          23.35          30.78         -5.605           2.64          161.1          33.84         -138.9          47.28          94.09
    0.1808              -12.65          21.29          23.39          30.81         -5.597           2.63          161.0          33.85         -138.7          47.35          94.04
    0.1884              -12.65          21.27          23.44          30.84         -5.588           2.62          160.8          33.87         -138.5          47.43          93.98
    0.1959              -12.65          21.25          23.48          30.87         -5.578          2.608          160.6          33.89         -138.2          47.52          93.92
    0.2034              -12.65          21.23          23.54          30.91         -5.566          2.595          160.4          33.92         -137.9          47.61          93.85
     0.211              -12.65          21.21           23.6          30.95         -5.553           2.58          160.2          33.94         -137.6          47.72          93.77
    0.2185              -12.65          21.18          23.67           31.0         -5.538          2.562          159.9          33.97         -137.3          47.85          93.68
     0.226              -12.65          21.15          23.75          31.06         -5.521          2.543          159.6          34.01         -136.8          47.99          93.57
    0.2336              -12.66          21.11          23.84          31.12         -5.502          2.521          159.2          34.05         -136.4          48.15          93.45
    0.2411              -12.66          21.07          23.95          31.19         -5.479          2.495          158.8          34.09         -135.8          48.34          93.31
    0.2486              -12.66          21.02          24.07          31.28         -5.453          2.465          158.3          34.15         -135.2          48.56          93.15
    0.2562              -12.66          20.96          24.22          31.38         -5.422           2.43          157.8          34.21         -134.4          48.82          92.97
    0.2637              -12.66          20.89          24.39           31.5         -5.386          2.388          157.1          34.28         -133.6          49.12          92.74
    0.2712              -12.67          20.81          24.59          31.64         -5.344          2.339          156.3          34.37         -132.5          49.48          92.48
    0.2788              -12.67          20.71          24.83           31.8         -5.292           2.28          155.4          34.48         -131.3          49.91          92.17
    0.2863              -12.68          20.59          25.13          32.01          -5.23          2.209          154.2           34.6         -129.8          50.42          91.78
    0.2938              -12.68          20.45          25.48          32.25         -5.154          2.121          152.9          34.76         -127.9          51.06          91.32
    0.3014              -12.69          20.27          25.93          32.56         -5.061          2.014          151.1          34.95         -125.6          51.84          90.74
    0.3089               -12.7          20.05          26.48          32.94         -4.944          1.879          149.0          35.19         -122.8          52.82          90.03
    0.3164              -12.71          19.77          27.17          33.42         -4.797           1.71          146.3          35.49         -119.2          54.05          89.12
     0.324              -12.72          19.42          28.06          34.03          -4.61          1.496          142.9          35.87         -114.6          55.62          87.97
    0.3315              -12.74          18.96          29.19          34.81          -4.37           1.22          138.5          36.36         -108.8          57.62           86.5
     0.339              -12.76          18.38          30.64          35.81         -4.063         0.8674          132.8          36.99         -101.3          60.19          84.62
    0.3466              -12.79          17.63          32.49          37.09          -3.67         0.4165          125.6          37.79         -91.77          63.48           82.2
    0.3541              -12.82           16.7          34.82           38.7         -3.177        -0.1504          116.6           38.8         -79.75          67.61          79.17
    0.3616              -12.87          15.56          37.66          40.67         -2.576        -0.8414          105.6          40.03         -65.11          72.64          75.48
    0.3692              -12.92          14.23          40.95          42.94         -1.879         -1.642          92.76          41.46         -48.14          78.47           71.2
    0.3767              -12.97           12.8          44.52           45.4         -1.124         -2.509          78.92           43.0         -29.76          84.79          66.56
    0.3842              -13.02          11.37          48.08          47.87        -0.3691         -3.377          65.07          44.55         -11.38          91.11          61.93
    0.3918              -13.07          10.04          51.38          50.14          0.328         -4.177          52.29          45.97          5.593          96.94          57.65
    0.3993              -13.12          8.902          54.22           52.1         0.9293         -4.868          41.26          47.21          20.24          102.0          53.95
    0.4068              -13.15          7.966          56.55          53.71          1.423         -5.435           32.2          48.21          32.25          106.1          50.92
    0.4144              -13.18          7.221           58.4          54.99          1.815         -5.886          25.01          49.02          41.81          109.4          48.51
    0.4219               -13.2          6.637          59.85           56.0          2.122         -6.239          19.37          49.65          49.29          112.0          46.63
    0.4294              -13.22          6.183          60.98          56.78          2.362         -6.514          14.98          50.14          55.12          114.0          45.16
     0.437              -13.23          5.828          61.87          57.39          2.549         -6.729          11.55          50.52          59.68          115.5          44.01
    0.4445              -13.24          5.549          62.56          57.87          2.696         -6.898          8.847          50.82          63.26          116.8           43.1
